<svg xmlns="http://www.w3.org/2000/svg" xmlns:xlink="http://www.w3.org/1999/xlink" id="processonSvg1000" viewBox="-13.125 180.79634152386848 946.125 870.2036584761315" width="946.125" height="870.2036584761315"><defs id="ProcessOnDefs1001"><marker id="ProcessOnMarker1019" markerUnits="userSpaceOnUse" orient="auto" markerWidth="16.23606797749979" markerHeight="10.550836550532098" viewBox="-1.0 -1.3763819204711736 16.23606797749979 10.550836550532098" refX="15.23606797749979" refY="3.8990363547948754"><path id="ProcessOnPath1020" d="M12.0 3.8990363547948754L0.0 7.798072709589751V0.0Z" stroke="#323232" stroke-width="2.0" fill="#323232" transform="matrix(-1.0,1.2246467991473532E-16,-1.2246467991473532E-16,-1.0,14.23606797749979,7.798072709589751)"/></marker><marker id="ProcessOnMarker1052" markerUnits="userSpaceOnUse" orient="auto" markerWidth="16.23606797749979" markerHeight="10.550836550532098" viewBox="-1.0 -1.3763819204711736 16.23606797749979 10.550836550532098" refX="15.23606797749979" refY="3.8990363547948754"><path id="ProcessOnPath1053" d="M12.0 3.8990363547948754L0.0 7.798072709589751V0.0Z" stroke="#323232" stroke-width="2.0" fill="#323232" transform="matrix(-1.0,1.2246467991473532E-16,-1.2246467991473532E-16,-1.0,14.23606797749979,7.798072709589751)"/></marker><marker id="ProcessOnMarker1116" markerUnits="userSpaceOnUse" orient="auto" markerWidth="16.23606797749979" markerHeight="10.550836550532098" viewBox="-1.0 -1.3763819204711736 16.23606797749979 10.550836550532098" refX="-1.0" refY="3.8990363547948754"><path id="ProcessOnPath1117" d="M12.0 3.8990363547948754L0.0 7.798072709589751V0.0Z" stroke="#323232" stroke-width="2.0" fill="#323232" transform="matrix(1.0,0.0,0.0,1.0,0.0,0.0)"/></marker><marker id="ProcessOnMarker1128" markerUnits="userSpaceOnUse" orient="auto" markerWidth="16.23606797749979" markerHeight="10.550836550532098" viewBox="-1.0 -1.3763819204711736 16.23606797749979 10.550836550532098" refX="-1.0" refY="3.8990363547948754"><path id="ProcessOnPath1129" d="M12.0 3.8990363547948754L0.0 7.798072709589751V0.0Z" stroke="#323232" stroke-width="2.0" fill="#323232" transform="matrix(1.0,0.0,0.0,1.0,0.0,0.0)"/></marker></defs><g id="ProcessOnG1002"><path id="ProcessOnPath1003" d="M-13.125 180.79634152386848H933.0V1051.0H-13.125V180.79634152386848Z" fill="none"/><g id="ProcessOnG1004"><g id="ProcessOnG1005" transform="matrix(1.0,0.0,0.0,1.0,338.8125,301.39817076193424)" opacity="1.0"><path id="ProcessOnPath1006" d="M30.0 0.0L121.0 0.0L91.0 90.0L0.0 90.0L30.0 0.0Z" stroke="#323232" stroke-width="2.0" stroke-dasharray="none" opacity="1.0" fill="#ffffff"/><g id="ProcessOnG1007" transform="matrix(1.0,0.0,0.0,1.0,18.15,30.0)"><text id="ProcessOnText1008" fill="#000000" font-size="12" x="41.349999999999994" y="12.3" font-family="微软雅黑" font-weight="normal" font-style="normal" text-decoration="none" family="微软雅黑" text-anchor="middle" size="12">Transform</text><text id="ProcessOnText1009" fill="#000000" font-size="12" x="41.349999999999994" y="27.3" font-family="微软雅黑" font-weight="normal" font-style="normal" text-decoration="none" family="微软雅黑" text-anchor="middle" size="12">VConn</text></g></g><g id="ProcessOnG1010" transform="matrix(1.0,0.0,0.0,1.0,587.8125,301.39817076193424)" opacity="1.0"><path id="ProcessOnPath1011" d="M30.0 0.0L121.0 0.0L91.0 90.0L0.0 90.0L30.0 0.0Z" stroke="#323232" stroke-width="2.0" stroke-dasharray="none" opacity="1.0" fill="#ffffff"/><g id="ProcessOnG1012" transform="matrix(1.0,0.0,0.0,1.0,18.15,28.75)"><text id="ProcessOnText1013" fill="#000000" font-size="13" x="41.349999999999994" y="13.325" font-family="微软雅黑" font-weight="normal" font-style="normal" text-decoration="none" family="微软雅黑" text-anchor="middle" size="13">Downstream</text><text id="ProcessOnText1014" fill="#000000" font-size="13" x="41.349999999999994" y="29.575" font-family="微软雅黑" font-weight="normal" font-style="normal" text-decoration="none" family="微软雅黑" text-anchor="middle" size="13">VConn</text></g></g><g id="ProcessOnG1015" transform="matrix(1.0,0.0,0.0,1.0,351.75,437.39817076193424)" opacity="1.0"><path id="ProcessOnPath1016" d="M0.0 0.0L94.75 0.0L94.75 31.0L0.0 31.0Z" stroke="none" stroke-width="0.0" stroke-dasharray="none" opacity="1.0" fill="none"/></g><g id="ProcessOnG1017"><path id="ProcessOnPath1018" d="M407.0 286.7639320225002C407.0 205.4746998101063 648.3125 204.87287057204054 648.3125 301.39817076193424" stroke="#323232" stroke-width="2.0" stroke-dasharray="none" fill="none" marker-start="url(#ProcessOnMarker1019)"/></g><g id="ProcessOnG1021" transform="matrix(1.0,0.0,0.0,1.0,335.875,452.39817076193424)" opacity="1.0"><path id="ProcessOnPath1022" d="M0.0 0.0L116.625 0.0L116.625 20.0L0.0 20.0Z" stroke="#323232" stroke-width="2.0" stroke-dasharray="none" opacity="1.0" fill="#ffffff"/><g id="ProcessOnG1023" transform="matrix(1.0,0.0,0.0,1.0,10.0,1.875)"><text id="ProcessOnText1024" fill="#000000" font-size="13" x="47.3125" y="13.325" font-family="微软雅黑" font-weight="normal" font-style="normal" text-decoration="none" family="微软雅黑" text-anchor="middle" size="13">ndone/nbytes</text></g></g><g id="ProcessOnG1025" transform="matrix(1.0,0.0,0.0,1.0,320.484375,425.39817076193424)" opacity="1.0"><path id="ProcessOnPath1026" d="M0.0 0.0L171.515625 0.0L171.515625 20.60182923806576L0.0 20.60182923806576Z" stroke="none" stroke-width="0.0" stroke-dasharray="none" opacity="1.0" fill="none"/><g id="ProcessOnG1027" transform="matrix(1.0,0.0,0.0,1.0,0.0,2.1759146190328806)"><text id="ProcessOnText1028" fill="#000000" font-size="13" x="84.7578125" y="13.325" font-family="微软雅黑" font-weight="normal" font-style="normal" text-decoration="none" family="微软雅黑" text-anchor="middle" size="13">② m_write_vio = input_vio </text></g></g><g id="ProcessOnG1029" transform="matrix(1.0,0.0,0.0,1.0,598.75,437.39817076193424)" opacity="1.0"><path id="ProcessOnPath1030" d="M0.0 0.0L94.75 0.0L94.75 31.0L0.0 31.0Z" stroke="none" stroke-width="0.0" stroke-dasharray="none" opacity="1.0" fill="none"/></g><g id="ProcessOnG1031" transform="matrix(1.0,0.0,0.0,1.0,582.875,452.39817076193424)" opacity="1.0"><path id="ProcessOnPath1032" d="M0.0 0.0L116.625 0.0L116.625 20.0L0.0 20.0Z" stroke="#323232" stroke-width="2.0" stroke-dasharray="none" opacity="1.0" fill="#ffffff"/><g id="ProcessOnG1033" transform="matrix(1.0,0.0,0.0,1.0,10.0,1.875)"><text id="ProcessOnText1034" fill="#000000" font-size="13" x="47.3125" y="13.325" font-family="微软雅黑" font-weight="normal" font-style="normal" text-decoration="none" family="微软雅黑" text-anchor="middle" size="13">ndone/nbytes</text></g></g><g id="ProcessOnG1035" transform="matrix(1.0,0.0,0.0,1.0,332.8828125,482.5)" opacity="1.0"><path id="ProcessOnPath1036" d="M15.666666666666666 0.0L106.95833333333333 0.0C127.84722222222223 0.0 127.84722222222223 47.0 106.95833333333333 47.0L15.666666666666666 47.0C-5.222222222222222 47.0 -5.222222222222222 0.0 15.666666666666666 0.0Z" stroke="#323232" stroke-width="2.0" stroke-dasharray="none" opacity="1.0" fill="#ffffff"/><g id="ProcessOnG1037" transform="matrix(1.0,0.0,0.0,1.0,10.0,7.25)"><text id="ProcessOnText1038" fill="#000000" font-size="13" x="50.3125" y="13.325" font-family="微软雅黑" font-weight="normal" font-style="normal" text-decoration="none" family="微软雅黑" text-anchor="middle" size="13">MIOBuffer</text><text id="ProcessOnText1039" fill="#000000" font-size="13" x="50.3125" y="29.575" font-family="微软雅黑" font-weight="normal" font-style="normal" text-decoration="none" family="微软雅黑" text-anchor="middle" size="13">Buffer 2</text></g></g><g id="ProcessOnG1040" transform="matrix(1.0,0.0,0.0,1.0,579.875,479.5)" opacity="1.0"><path id="ProcessOnPath1041" d="M15.666666666666666 0.0L106.95833333333333 0.0C127.84722222222223 0.0 127.84722222222223 47.0 106.95833333333333 47.0L15.666666666666666 47.0C-5.222222222222222 47.0 -5.222222222222222 0.0 15.666666666666666 0.0Z" stroke="#323232" stroke-width="2.0" stroke-dasharray="none" opacity="1.0" fill="#ffffff"/><g id="ProcessOnG1042" transform="matrix(1.0,0.0,0.0,1.0,10.0,7.25)"><text id="ProcessOnText1043" fill="#000000" font-size="13" x="50.3125" y="13.325" font-family="微软雅黑" font-weight="normal" font-style="normal" text-decoration="none" family="微软雅黑" text-anchor="middle" size="13">MIOBuffer</text><text id="ProcessOnText1044" fill="#000000" font-size="13" x="50.3125" y="29.575" font-family="微软雅黑" font-weight="normal" font-style="normal" text-decoration="none" family="微软雅黑" text-anchor="middle" size="13">Buffer 3</text></g></g><g id="ProcessOnG1045" transform="matrix(1.0,0.0,0.0,1.0,93.8125,301.39817076193424)" opacity="1.0"><path id="ProcessOnPath1046" d="M30.0 0.0L121.0 0.0L91.0 90.0L0.0 90.0L30.0 0.0Z" stroke="#323232" stroke-width="2.0" stroke-dasharray="none" opacity="1.0" fill="#ffffff"/><g id="ProcessOnG1047" transform="matrix(1.0,0.0,0.0,1.0,18.15,30.0)"><text id="ProcessOnText1048" fill="#000000" font-size="12" x="41.349999999999994" y="12.3" font-family="微软雅黑" font-weight="normal" font-style="normal" text-decoration="none" family="微软雅黑" text-anchor="middle" size="12">Upsteam</text><text id="ProcessOnText1049" fill="#000000" font-size="12" x="41.349999999999994" y="27.3" font-family="微软雅黑" font-weight="normal" font-style="normal" text-decoration="none" family="微软雅黑" text-anchor="middle" size="12">VConn</text></g></g><g id="ProcessOnG1050"><path id="ProcessOnPath1051" d="M154.3125 286.16210278443447C154.31250000000003 206.32286599382377 392.0 206.92469523188953 392.0 302.0" stroke="#323232" stroke-width="2.0" stroke-dasharray="none" fill="none" marker-start="url(#ProcessOnMarker1052)"/></g><g id="ProcessOnG1054" transform="matrix(1.0,0.0,0.0,1.0,105.75,437.39817076193424)" opacity="1.0"><path id="ProcessOnPath1055" d="M0.0 0.0L94.75 0.0L94.75 31.0L0.0 31.0Z" stroke="none" stroke-width="0.0" stroke-dasharray="none" opacity="1.0" fill="none"/></g><g id="ProcessOnG1056" transform="matrix(1.0,0.0,0.0,1.0,89.875,452.39817076193424)" opacity="1.0"><path id="ProcessOnPath1057" d="M0.0 0.0L116.625 0.0L116.625 20.0L0.0 20.0Z" stroke="#323232" stroke-width="2.0" stroke-dasharray="none" opacity="1.0" fill="#ffffff"/><g id="ProcessOnG1058" transform="matrix(1.0,0.0,0.0,1.0,10.0,1.875)"><text id="ProcessOnText1059" fill="#000000" font-size="13" x="47.3125" y="13.325" font-family="微软雅黑" font-weight="normal" font-style="normal" text-decoration="none" family="微软雅黑" text-anchor="middle" size="13">ndone/nbytes</text></g></g><g id="ProcessOnG1060" transform="matrix(1.0,0.0,0.0,1.0,86.875,482.5)" opacity="1.0"><path id="ProcessOnPath1061" d="M15.666666666666666 0.0L106.95833333333333 0.0C127.84722222222223 0.0 127.84722222222223 47.0 106.95833333333333 47.0L15.666666666666666 47.0C-5.222222222222222 47.0 -5.222222222222222 0.0 15.666666666666666 0.0Z" stroke="#323232" stroke-width="2.0" stroke-dasharray="none" opacity="1.0" fill="#ffffff"/><g id="ProcessOnG1062" transform="matrix(1.0,0.0,0.0,1.0,10.0,7.25)"><text id="ProcessOnText1063" fill="#000000" font-size="13" x="50.3125" y="13.325" font-family="微软雅黑" font-weight="normal" font-style="normal" text-decoration="none" family="微软雅黑" text-anchor="middle" size="13">MIOBuffer</text><text id="ProcessOnText1064" fill="#000000" font-size="13" x="50.3125" y="29.575" font-family="微软雅黑" font-weight="normal" font-style="normal" text-decoration="none" family="微软雅黑" text-anchor="middle" size="13">Buffer 1</text></g></g><g id="ProcessOnG1065" transform="matrix(1.0,0.0,0.0,1.0,259.921875,397.7963415238685)" opacity="1.0"><path id="ProcessOnPath1066" d="M0.0 0.0L268.546875 0.0L268.546875 27.60182923806576L0.0 27.60182923806576Z" stroke="none" stroke-width="0.0" stroke-dasharray="none" opacity="1.0" fill="none"/><g id="ProcessOnG1067" transform="matrix(1.0,0.0,0.0,1.0,0.0,5.675914619032881)"><text id="ProcessOnText1068" fill="#000000" font-size="13" x="133.2734375" y="13.325" font-family="微软雅黑" font-weight="normal" font-style="normal" text-decoration="none" family="微软雅黑" text-anchor="middle" size="13">① m_output_vc -&gt; Downstream VConn</text></g></g><g id="ProcessOnG1069" transform="matrix(1.0,0.0,0.0,1.0,26.453125,397.7963415238685)" opacity="1.0"><path id="ProcessOnPath1070" d="M0.0 0.0L233.46875 0.0L233.46875 27.60182923806576L0.0 27.60182923806576Z" stroke="none" stroke-width="0.0" stroke-dasharray="none" opacity="1.0" fill="none"/><g id="ProcessOnG1071" transform="matrix(1.0,0.0,0.0,1.0,0.0,5.675914619032881)"><text id="ProcessOnText1072" fill="#000000" font-size="13" x="115.734375" y="13.325" font-family="微软雅黑" font-weight="normal" font-style="normal" text-decoration="none" family="微软雅黑" text-anchor="middle" size="13">m_output_vc -&gt; Transform VConn</text></g></g><g id="ProcessOnG1073" transform="matrix(1.0,0.0,0.0,1.0,513.65234375,425.39817076193424)" opacity="1.0"><path id="ProcessOnPath1074" d="M0.0 0.0L255.0703125 0.0L255.0703125 20.60182923806576L0.0 20.60182923806576Z" stroke="none" stroke-width="0.0" stroke-dasharray="none" opacity="1.0" fill="none"/><g id="ProcessOnG1075" transform="matrix(1.0,0.0,0.0,1.0,0.0,2.1759146190328806)"><text id="ProcessOnText1076" fill="#000000" font-size="13" x="126.53515625" y="13.325" font-family="微软雅黑" font-weight="normal" font-style="normal" text-decoration="none" family="微软雅黑" text-anchor="middle" size="13">③ data-&gt;output_vio = m_write_vio</text></g></g><g id="ProcessOnG1077" transform="matrix(1.0,0.0,0.0,1.0,74.484375,425.39817076193424)" opacity="1.0"><path id="ProcessOnPath1078" d="M0.0 0.0L147.40625 0.0L147.40625 20.60182923806576L0.0 20.60182923806576Z" stroke="none" stroke-width="0.0" stroke-dasharray="none" opacity="1.0" fill="none"/><g id="ProcessOnG1079" transform="matrix(1.0,0.0,0.0,1.0,0.0,2.1759146190328806)"><text id="ProcessOnText1080" fill="#000000" font-size="13" x="72.703125" y="13.325" font-family="微软雅黑" font-weight="normal" font-style="normal" text-decoration="none" family="微软雅黑" text-anchor="middle" size="13">m_write_vio</text></g></g><g id="ProcessOnG1081" transform="matrix(1.0,0.0,0.0,1.0,6.875,672.0)" opacity="1.0"><path id="ProcessOnPath1082" d="M0.0 0.0L890.125 0.0L906.125 16.0L906.125 359.0L0.0 359.0L0.0 0.0Z" stroke="none" stroke-width="0.0" stroke-dasharray="none" opacity="1.0" fill="#ffffaa"/><path id="ProcessOnPath1083" d="M890.125 0.0L890.125 16.0L906.125 16.0Z" stroke="none" stroke-width="0.0" stroke-dasharray="none" opacity="1.0" fill="#cdcd78"/><path id="ProcessOnPath1084" d="M0.0 0.0L890.125 0.0L906.125 16.0L906.125 359.0L0.0 359.0L0.0 0.0Z" stroke="none" stroke-width="0.0" stroke-dasharray="none" opacity="1.0" fill="none"/><g id="ProcessOnG1085" transform="matrix(1.0,0.0,0.0,1.0,10.0,10.0)"><text id="ProcessOnText1086" fill="#000000" font-size="13" x="0.0" y="13.325" font-family="微软雅黑" font-weight="normal" font-style="normal" text-decoration="none" family="微软雅黑" text-anchor="start" size="13">① 获得Downstream VConn(m_output_vc)</text><text id="ProcessOnText1087" fill="#000000" font-size="13" x="0.0" y="29.575" font-family="微软雅黑" font-weight="normal" font-style="normal" text-decoration="none" family="微软雅黑" text-anchor="start" size="13"></text><text id="ProcessOnText1088" fill="#000000" font-size="13" x="0.0" y="45.825" font-family="微软雅黑" font-weight="normal" font-style="normal" text-decoration="none" family="微软雅黑" text-anchor="start" size="13">② 获得当前VConn的m_write_vio(input_vio)，注意这个VIO是由Upsteam VConn负责初始化</text><text id="ProcessOnText1089" fill="#000000" font-size="13" x="0.0" y="62.075" font-family="微软雅黑" font-weight="normal" font-style="normal" text-decoration="none" family="微软雅黑" text-anchor="start" size="13">data-&gt;output_vio = TSVConnWrite(output_conn, contp, data-&gt;output_reader, INT64_MAX);</text><text id="ProcessOnText1090" fill="#000000" font-size="13" x="0.0" y="78.325" font-family="微软雅黑" font-weight="normal" font-style="normal" text-decoration="none" family="微软雅黑" text-anchor="start" size="13">output_conn-&gt;do_io_write(contp, data-&gt;output_reader, INT64_MAX)</text><text id="ProcessOnText1091" fill="#000000" font-size="13" x="0.0" y="94.575" font-family="微软雅黑" font-weight="normal" font-style="normal" text-decoration="none" family="微软雅黑" text-anchor="start" size="13"></text><text id="ProcessOnText1092" fill="#000000" font-size="13" x="0.0" y="110.825" font-family="微软雅黑" font-weight="normal" font-style="normal" text-decoration="none" family="微软雅黑" text-anchor="start" size="13">③ 创建MIOBuffer，作为参数初始化Downstream VConn的m_write_vio</text><text id="ProcessOnText1093" fill="#000000" font-size="13" x="0.0" y="127.075" font-family="微软雅黑" font-weight="normal" font-style="normal" text-decoration="none" family="微软雅黑" text-anchor="start" size="13"></text><text id="ProcessOnText1094" fill="#000000" font-size="13" x="0.0" y="143.325" font-family="微软雅黑" font-weight="normal" font-style="normal" text-decoration="none" family="微软雅黑" text-anchor="start" size="13">④ 将input_vio对应MIOBuffer(Buffer 2)中的数据拷贝到Downstream VConn的m_write_vio(data-&gt;output_vio)，也就是MIOBuffer(Buffer 3)</text><text id="ProcessOnText1095" fill="#000000" font-size="13" x="0.0" y="159.575" font-family="微软雅黑" font-weight="normal" font-style="normal" text-decoration="none" family="微软雅黑" text-anchor="start" size="13">TSIOBufferCopy(TSVIOBufferGet(data-&gt;output_vio), TSVIOReaderGet(input_vio), towrite, 0);</text><text id="ProcessOnText1096" fill="#000000" font-size="13" x="0.0" y="175.825" font-family="微软雅黑" font-weight="normal" font-style="normal" text-decoration="none" family="微软雅黑" text-anchor="start" size="13"></text><text id="ProcessOnText1097" fill="#000000" font-size="13" x="0.0" y="192.075" font-family="微软雅黑" font-weight="normal" font-style="normal" text-decoration="none" family="微软雅黑" text-anchor="start" size="13">⑤ 通过Downstream VConn的m_write_vio(data-&gt;output_vio)向Downstream VConn发送event_immediate，告知其MIOBuffer(Buffer 3)已经准备好</text><text id="ProcessOnText1098" fill="#000000" font-size="13" x="0.0" y="208.325" font-family="微软雅黑" font-weight="normal" font-style="normal" text-decoration="none" family="微软雅黑" text-anchor="start" size="13">，可以继续操作了(譬如继续向自己的下游拷贝)</text><text id="ProcessOnText1099" fill="#000000" font-size="13" x="0.0" y="224.575" font-family="微软雅黑" font-weight="normal" font-style="normal" text-decoration="none" family="微软雅黑" text-anchor="start" size="13">InkAPI.cc: data-&gt;output_vio-&gt;reenable</text><text id="ProcessOnText1100" fill="#000000" font-size="13" x="0.0" y="240.825" font-family="微软雅黑" font-weight="normal" font-style="normal" text-decoration="none" family="微软雅黑" text-anchor="start" size="13"></text><text id="ProcessOnText1101" fill="#000000" font-size="13" x="0.0" y="257.075" font-family="微软雅黑" font-weight="normal" font-style="normal" text-decoration="none" family="微软雅黑" text-anchor="start" size="13">⑥ 通知Upsteam VConn本地MIOBuffer(Buffer 2)中的数据已经消费完毕，可以继续写了</text><text id="ProcessOnText1102" fill="#000000" font-size="13" x="0.0" y="273.325" font-family="微软雅黑" font-weight="normal" font-style="normal" text-decoration="none" family="微软雅黑" text-anchor="start" size="13">TSContCall(TSVIOContGet(input_vio), TS_EVENT_VCONN_WRITE_READY, input_vio)</text><text id="ProcessOnText1103" fill="#000000" font-size="13" x="0.0" y="289.575" font-family="微软雅黑" font-weight="normal" font-style="normal" text-decoration="none" family="微软雅黑" text-anchor="start" size="13">-&gt;</text><text id="ProcessOnText1104" fill="#000000" font-size="13" x="0.0" y="305.825" font-family="微软雅黑" font-weight="normal" font-style="normal" text-decoration="none" family="微软雅黑" text-anchor="start" size="13">input_vio-&gt;_cout(TS_EVENT_VCONN_WRITE_READY, input_vio)</text><text id="ProcessOnText1105" fill="#000000" font-size="13" x="0.0" y="322.075" font-family="微软雅黑" font-weight="normal" font-style="normal" text-decoration="none" family="微软雅黑" text-anchor="start" size="13">注意这个_cout是由Upstream VConn在初始化input_vio时赋值为Upstream VConn</text></g></g><g id="ProcessOnG1106" transform="matrix(1.0,0.0,0.0,1.0,191.453125,200.79634152386848)" opacity="1.0"><path id="ProcessOnPath1107" d="M0.0 0.0L184.546875 0.0L184.546875 20.0L0.0 20.0Z" stroke="none" stroke-width="0.0" stroke-dasharray="none" opacity="1.0" fill="none"/><g id="ProcessOnG1108" transform="matrix(1.0,0.0,0.0,1.0,0.0,1.875)"><text id="ProcessOnText1109" fill="#000000" font-size="13" x="91.2734375" y="13.325" font-family="微软雅黑" font-weight="normal" font-style="normal" text-decoration="none" family="微软雅黑" text-anchor="middle" size="13">⑥ TSContCalll(Write_Ready)</text></g></g><g id="ProcessOnG1110" transform="matrix(1.0,0.0,0.0,1.0,443.453125,200.79634152386848)" opacity="1.0"><path id="ProcessOnPath1111" d="M0.0 0.0L184.546875 0.0L184.546875 20.0L0.0 20.0Z" stroke="none" stroke-width="0.0" stroke-dasharray="none" opacity="1.0" fill="none"/><g id="ProcessOnG1112" transform="matrix(1.0,0.0,0.0,1.0,0.0,1.875)"><text id="ProcessOnText1113" fill="#000000" font-size="13" x="91.2734375" y="13.325" font-family="微软雅黑" font-weight="normal" font-style="normal" text-decoration="none" family="微软雅黑" text-anchor="middle" size="13">InkContCall(Write_Ready)</text></g></g><g id="ProcessOnG1114"><path id="ProcessOnPath1115" d="M148.1875 529.5C148.18750000000003 624.6283352425323 386.0078125 624.1283352425323 386.0078125 544.2360679774998" stroke="#323232" stroke-width="2.0" stroke-dasharray="none" fill="none" marker-end="url(#ProcessOnMarker1116)"/></g><g id="ProcessOnG1118" transform="matrix(1.0,0.0,0.0,1.0,177.453125,609.7963415238685)" opacity="1.0"><path id="ProcessOnPath1119" d="M0.0 0.0L184.546875 0.0L184.546875 20.0L0.0 20.0Z" stroke="none" stroke-width="0.0" stroke-dasharray="none" opacity="1.0" fill="none"/><g id="ProcessOnG1120" transform="matrix(1.0,0.0,0.0,1.0,0.0,1.875)"><text id="ProcessOnText1121" fill="#000000" font-size="13" x="91.2734375" y="13.325" font-family="微软雅黑" font-weight="normal" font-style="normal" text-decoration="none" family="微软雅黑" text-anchor="middle" size="13">TSVIOReenable</text></g></g><g id="ProcessOnG1122" transform="matrix(1.0,0.0,0.0,1.0,419.453125,609.7963415238685)" opacity="1.0"><path id="ProcessOnPath1123" d="M0.0 0.0L239.546875 0.0L239.546875 20.0L0.0 20.0Z" stroke="none" stroke-width="0.0" stroke-dasharray="none" opacity="1.0" fill="none"/><g id="ProcessOnG1124" transform="matrix(1.0,0.0,0.0,1.0,0.0,1.875)"><text id="ProcessOnText1125" fill="#000000" font-size="13" x="118.7734375" y="13.325" font-family="微软雅黑" font-weight="normal" font-style="normal" text-decoration="none" family="微软雅黑" text-anchor="middle" size="13">⑤ TSVIOReenable(data-&gt;output_vio)</text></g></g><g id="ProcessOnG1126"><path id="ProcessOnPath1127" d="M399.1875 530.5C399.1875 625.6252102494391 637.0 625.1252102494391 637.0 545.2360679774998" stroke="#323232" stroke-width="2.0" stroke-dasharray="none" fill="none" marker-end="url(#ProcessOnMarker1128)"/></g></g></g></svg>